<svg height="512" viewBox="0 0 47 58" width="512" xmlns="http://www.w3.org/2000/svg"><g id="031---Up-Arrow" fill="none" transform="translate(0 -1)"><path id="Shape" d="m45.992 26.058c.0237687-1.0130709-.3420323-1.9966535-1.022-2.748-21.345-23.592-18.77-20.762-19.19-21.18-.3903729-.39523443-.8657672-.69620348-1.39-.88-.4766258-.17591644-.9820593-.26072071-1.49-.25-.5969274.00823859-1.183231.15910032-1.71.44-.88.41.574-1.047-20.16 21.87-.6642312.7384057-1.03120036 1.6968008-1.03 2.69v7c.01245305 1.6490813 1.03275804 3.1225707 2.57202157 3.7144252 1.53926354.5918546 3.28391427.1815045 4.39797843-1.0344252l12.03-13.3v32.62c0 2.209139 1.790861 4 4 4s4-1.790861 4-4v-32.62l12.03 13.3c1.1132185 1.2181102 2.8589932 1.6298952 4.3992254 1.0376682 1.5402321-.592227 2.5604102-2.0675347 2.5707746-3.7176682 0-7 .023-7.173-.008-6.942z" fill="#2fa8cc"/><path id="Shape" d="m19 15.38v7l-12 13.27v-7z" fill="#2980ba"/><path id="Shape" d="m7 28.65v7c-1.10494894 1.2380868-2.85847284 1.6674467-4.41043352 1.0799187-1.55196068-.5875279-2.58153446-2.0704891-2.58956648-3.7299187v-7c.01245305 1.6490813 1.03275804 3.1225707 2.57202157 3.7144252 1.53926354.5918546 3.28391427.1815045 4.39797843-1.0344252z" fill="#3b97d3"/><path id="Shape" d="m27 48v7c0 2.209139-1.790861 4-4 4s-4-1.790861-4-4v-7c0 2.209139 1.790861 4 4 4s4-1.790861 4-4z" fill="#3b97d3"/><path id="Shape" d="m39 28.65v7l-12-13.27v-7z" fill="#2980ba"/><path id="Shape" d="m46 26v7c-.0058759 1.6605171-1.0353272 3.1453637-2.5882965 3.7332735-1.5529692.5879098-3.30765.157056-4.4117035-1.0832735v-7c.9843612 1.1084719 2.5010497 1.5816274 3.9410741 1.2294816 1.4400245-.3521457 2.5671964-1.4718346 2.9289259-2.9094816z" fill="#3b97d3"/></g></svg>